<svg width="24" height="24" viewBox="0 0 24 24" fill="none" xmlns="http://www.w3.org/2000/svg">
<path d="M12 9C9 9 8 11.1 8 13C8 14.9 9 17 12 17C15 17 16 14.9 16 13C16 11.1 15 9 12 9Z" stroke="#C7C7CC" stroke-width="1.88" stroke-linecap="round" stroke-linejoin="round"/>
<path fill-rule="evenodd" clip-rule="evenodd" d="M9.60199 10.883C9.15328 11.4304 8.94 12.1971 8.94 12.9996C8.94 13.8021 9.15328 14.5688 9.60199 15.1162C10.0245 15.6316 10.7415 16.0596 12 16.0596C12.5191 16.0596 12.94 16.4804 12.94 16.9996V21.9996C12.94 22.5187 12.5191 22.9396 12 22.9396C11.4809 22.9396 11.06 22.5187 11.06 21.9996V17.8742C9.78892 17.6901 8.81882 17.1263 8.14801 16.308C7.34672 15.3304 7.06 14.0971 7.06 12.9996C7.06 11.9021 7.34672 10.6688 8.14801 9.69118C8.97551 8.68163 10.2585 8.05957 12 8.05957C12.5191 8.05957 12.94 8.48042 12.94 8.99957C12.94 9.51872 12.5191 9.93957 12 9.93957C10.7415 9.93957 10.0245 10.3675 9.60199 10.883Z" fill="#C7C7CC"/>
<path fill-rule="evenodd" clip-rule="evenodd" d="M11.063 4.5V4.20117L8.66461 6.59961C8.29742 6.9668 7.70367 6.9668 7.34039 6.59961C6.97711 6.23242 6.97321 5.63867 7.34039 5.27539L11.3365 1.27539C11.7037 0.908203 12.2974 0.908203 12.6607 1.27539L16.6646 5.27539C17.0318 5.64258 17.0318 6.23633 16.6646 6.59961C16.2974 6.96289 15.7037 6.9668 15.3404 6.59961L12.942 4.20117L12.94 5.10278V9C12.94 9.51915 12.5191 9.94 12 9.94C10.7415 9.94 10.0245 10.3679 9.60199 10.8834C9.15328 11.4308 8.94 12.1975 8.94 13C8.94 13.5191 8.51915 13.94 8 13.94C7.48085 13.94 7.06 13.5191 7.06 13C7.06 11.9025 7.34672 10.6692 8.14801 9.69161C8.81882 8.87322 9.78892 8.30947 11.06 8.12532V4.5H11.063Z" fill="#232F3E"/>
</svg>
