<?xml version="1.0" encoding="UTF-8"?>
<svg width="88px" height="88px" viewBox="0 0 88 88" version="1.1" xmlns="http://www.w3.org/2000/svg" xmlns:xlink="http://www.w3.org/1999/xlink">
    <title>Check@2x</title>
    <g id="UI-Kit" stroke="none" stroke-width="1" fill="none" fill-rule="evenodd">
        <g id="Icons" transform="translate(-40.000000, -384.000000)" fill="#00AF1C" fill-rule="nonzero">
            <g id="Row-6" transform="translate(40.000000, 384.000000)">
                <path d="M39.4796875,55.9796875 C38.9296875,56.5125 38.0703125,56.5125 37.5203125,55.9796875 L26.5203125,44.9796875 C25.9875,44.4296875 25.9875,43.5703125 26.5203125,43.0203125 C27.0703125,42.4875 27.9296875,42.4875 28.4796875,43.0203125 L38.5,53.0578125 L59.5203125,32.0203125 C60.0703125,31.4875 60.9296875,31.4875 61.4796875,32.0203125 C62.0125,32.5703125 62.0125,33.4296875 61.4796875,33.9796875 L39.4796875,55.9796875 Z M88,44 C88,68.303125 68.303125,88 44,88 C19.696875,88 0,68.303125 0,44 C0,19.696875 19.696875,0 44,0 C68.303125,0 88,19.696875 88,44 Z M44,2.75 C21.2265625,2.75 2.75,21.2265625 2.75,44 C2.75,66.7734375 21.2265625,85.25 44,85.25 C66.7734375,85.25 85.25,66.7734375 85.25,44 C85.25,21.2265625 66.7734375,2.75 44,2.75 Z" id="Check"></path>
            </g>
        </g>
    </g>
</svg>