<svg width="24" height="24" viewBox="0 0 24 24" fill="none" xmlns="http://www.w3.org/2000/svg">
<path d="M12 10C9 10 8 12.1 8 14C8 15.9 9 18 12 18C15 18 16 15.9 16 14C16 12.1 15 10 12 10Z" stroke="#C7C7CC" stroke-width="1.88" stroke-linecap="round" stroke-linejoin="round"/>
<path d="M11.94 4.05957C12.4591 4.05957 12.88 4.48042 12.88 4.99957V9.11889C13.3007 9.18087 13.8276 9.30463 14.3641 9.55243C14.9955 9.84398 15.6532 10.3141 16.1492 11.0622C16.6471 11.8135 16.9401 12.782 16.9401 13.9996C16.9401 15.2171 16.6471 16.1857 16.1492 16.9369C15.6532 17.6851 14.9955 18.1552 14.3641 18.4467C13.8276 18.6945 13.3007 18.8183 12.88 18.8803V22.9996C12.88 23.5187 12.4591 23.9396 11.94 23.9396C11.4209 23.9396 11 23.5187 11 22.9996V17.9996C11 17.7402 11.1071 17.4924 11.2961 17.3148C11.4839 17.1382 11.7359 17.0465 11.9931 17.0611L12.0107 17.0617C12.0288 17.0622 12.0599 17.0626 12.1021 17.0621C12.1867 17.061 12.3139 17.0557 12.4689 17.0382C12.784 17.0026 13.1865 16.9198 13.5759 16.7399C13.9596 16.5627 14.3169 16.2984 14.5822 15.8982C14.8455 15.501 15.0601 14.907 15.0601 13.9996C15.0601 13.0921 14.8455 12.4982 14.5822 12.101C14.3169 11.7007 13.9596 11.4364 13.5759 11.2592C13.1865 11.0794 12.784 10.9965 12.4689 10.961C12.3139 10.9435 12.1867 10.9382 12.1021 10.937C12.0599 10.9365 12.0288 10.937 12.0107 10.9375L11.9936 10.938C11.7364 10.9526 11.4839 10.861 11.2961 10.6844C11.1071 10.5067 11 10.2589 11 9.99957V4.99957C11 4.48042 11.4209 4.05957 11.94 4.05957Z" fill="#C7C7CC"/>
<path fill-rule="evenodd" clip-rule="evenodd" d="M12.877 4.20117V4.92333C12.879 4.94848 12.88 4.9739 12.88 4.99957V9.1165C13.8095 9.24151 14.5805 9.56758 15.1934 10.0469C15.5408 10.3093 15.8705 10.6419 16.1492 11.0622C16.6471 11.8135 16.9401 12.782 16.9401 13.9996C16.9401 14.5187 16.5192 14.9396 16.0001 14.9396C15.4809 14.9396 15.0601 14.5187 15.0601 13.9996C15.0601 13.1971 14.8468 12.4304 14.3981 11.883C14.2957 11.758 14.1759 11.6382 14.0354 11.5284C13.8899 11.4213 13.7352 11.3328 13.5759 11.2592C13.1867 11.0795 12.7844 10.9966 12.4695 10.961C12.322 10.947 12.1657 10.9396 12.0001 10.9396C11.9899 10.9396 11.9798 10.9394 11.9698 10.9391C11.7208 10.9469 11.4781 10.8555 11.2961 10.6844C11.1071 10.5067 11 10.2589 11 9.99957V6.10059L10.998 4.20117L8.59961 6.59961C8.23633 6.9668 7.64258 6.96289 7.27539 6.59961C6.9082 6.23633 6.9082 5.64258 7.27539 5.27539L11.2793 1.27539C11.6426 0.908203 12.2363 0.908203 12.6035 1.27539L16.5996 5.27539C16.9668 5.63867 16.9629 6.23242 16.5996 6.59961C16.2363 6.9668 15.6426 6.9668 15.2754 6.59961L12.877 4.20117Z" fill="#232F3E"/>
</svg>
