<svg width="24" height="24" viewBox="0 0 24 24" fill="none" xmlns="http://www.w3.org/2000/svg">
<path d="M12 9C9 9 8 11.1 8 13C8 14.9 9 17 12 17C15 17 16 14.9 16 13C16 11.1 15 9 12 9Z" stroke="#C7C7CC" stroke-width="1.88" stroke-linecap="round" stroke-linejoin="round"/>
<path fill-rule="evenodd" clip-rule="evenodd" d="M11 5.10059L10.998 4.20117L8.59961 6.59961C8.23633 6.9668 7.64258 6.96289 7.27539 6.59961C6.9082 6.23633 6.9082 5.64258 7.27539 5.27539L11.2793 1.27539C11.6426 0.908203 12.2363 0.908203 12.6035 1.27539L16.5996 5.27539C16.9668 5.63867 16.9629 6.23242 16.5996 6.59961C16.2363 6.9668 15.6426 6.9668 15.2754 6.59961L12.88 4.20422V8.11889C13.3007 8.18087 13.8276 8.30463 14.3641 8.55243C14.9955 8.84398 15.6532 9.31405 16.1492 10.0622C16.6471 10.8135 16.9401 11.782 16.9401 12.9996C16.9401 14.2171 16.6471 15.1857 16.1492 15.9369C15.6532 16.6851 14.9955 17.1552 14.3641 17.4467C13.8276 17.6945 13.3007 17.8183 12.88 17.8803V21.9996C12.88 22.5187 12.4591 22.9396 11.94 22.9396C11.4209 22.9396 11 22.5187 11 21.9996V16.9996C11 16.7402 11.1071 16.4924 11.2961 16.3148C11.4839 16.1382 11.7359 16.0465 11.9931 16.0611L12.0107 16.0617C12.0288 16.0622 12.0599 16.0626 12.1021 16.0621C12.1867 16.061 12.3139 16.0557 12.4689 16.0382C12.784 16.0026 13.1865 15.9198 13.5759 15.7399C13.9596 15.5627 14.3169 15.2984 14.5822 14.8982C14.8455 14.501 15.0601 13.907 15.0601 12.9996C15.0601 12.0921 14.8455 11.4982 14.5822 11.101C14.3169 10.7007 13.9596 10.4364 13.5759 10.2592C13.1865 10.0794 12.784 9.99654 12.4689 9.96098C12.3139 9.94348 12.1867 9.93816 12.1021 9.93705C12.0599 9.93649 12.0288 9.93698 12.0107 9.93747L11.9936 9.93805C11.7364 9.95261 11.4839 9.86096 11.2961 9.68437C11.1071 9.50672 11 9.25891 11 8.99957V5.10059Z" fill="#232F3E"/>
</svg>
