<svg width="24" height="24" viewBox="0 0 24 24" fill="none" xmlns="http://www.w3.org/2000/svg">
<path d="M10 3V21" stroke="#C7C7CC" stroke-width="1.88"/>
<path fill-rule="evenodd" clip-rule="evenodd" d="M17.6611 5.33928C18.0263 5.70443 18.0263 6.29643 17.6611 6.66157L11.8327 12.49C11.2579 13.0648 10.935 13.8444 10.935 14.6573V21.0004C10.935 21.5168 10.5164 21.9354 10 21.9354C9.48362 21.9354 9.065 21.5168 9.065 21.0004V14.6573C9.065 13.3484 9.58494 12.0932 10.5104 11.1677L16.3389 5.33928C16.704 4.97414 17.296 4.97414 17.6611 5.33928Z" fill="#232F3E"/>
<path d="M19.8125 2.25C20.332 2.25 20.75 2.66797 20.75 3.1875V9.5625C20.75 10.082 20.332 10.5 19.8125 10.5C19.293 10.5 18.875 10.082 18.875 9.5625V5.44922L13.8516 10.4766C13.4844 10.8438 12.8906 10.8438 12.5273 10.4766C12.1641 10.1094 12.1602 9.51562 12.5273 9.15234L17.5508 4.12891L13.4375 4.125C12.918 4.125 12.5 3.70703 12.5 3.1875C12.5 2.66797 12.918 2.25 13.4375 2.25H19.8125Z" fill="#232F3E"/>
</svg>
