<?xml version="1.0" encoding="UTF-8"?>
<svg width="24px" height="24px" viewBox="0 0 24 24" version="1.1" xmlns="http://www.w3.org/2000/svg" xmlns:xlink="http://www.w3.org/1999/xlink">
    <title>icon-lock</title>
    <g id="UI-Kit" stroke="none" stroke-width="1" fill="none" fill-rule="evenodd">
        <g id="Icons" transform="translate(-472.000000, -112.000000)" fill="#1D1D1F">
            <g id="Row-1" transform="translate(40.000000, 112.000000)">
                <g id="Icon/lock" transform="translate(435.250000, 2.000000)">
                    <path d="M3.75,7.5 L3.75,5 C3.75,2.23867188 5.98828125,0 8.75,0 C11.5117188,0 13.75,2.23867188 13.75,5 L13.75,7.5 L15,7.5 C16.3789062,7.5 17.5,8.62109375 17.5,10 L17.5,17.5 C17.5,18.8789062 16.3789062,20 15,20 L2.5,20 C1.11914062,20 0,18.8789062 0,17.5 L0,10 C0,8.62109375 1.11914062,7.5 2.5,7.5 L3.75,7.5 Z M5.625,7.5 L11.875,7.5 L11.875,5 C11.875,3.27421875 10.4765625,1.875 8.75,1.875 C7.0234375,1.875 5.625,3.27421875 5.625,5 L5.625,7.5 Z M1.875,17.5 C1.875,17.84375 2.1546875,18.125 2.5,18.125 L15,18.125 C15.34375,18.125 15.625,17.84375 15.625,17.5 L15.625,10 C15.625,9.65625 15.34375,9.375 15,9.375 L2.5,9.375 C2.1546875,9.375 1.875,9.65625 1.875,10 L1.875,17.5 Z" id="🎨-Icon-Сolor"></path>
                </g>
            </g>
        </g>
    </g>
</svg>