<svg width="24" height="24" viewBox="0 0 24 24" fill="none" xmlns="http://www.w3.org/2000/svg">
<path d="M12 6C9 6 8 8.1 8 10C8 11.9 9 14 12 14C15 14 16 11.9 16 10C16 8.1 15 6 12 6Z" stroke="#C7C7CC" stroke-width="1.88" stroke-linecap="round" stroke-linejoin="round"/>
<path d="M11.94 0.0595703C12.4591 0.0595703 12.88 0.480423 12.88 0.99957V5.11889C13.3007 5.18087 13.8276 5.30463 14.3641 5.55243C14.9955 5.84398 15.6532 6.31405 16.1492 7.06225C16.6471 7.81346 16.9401 8.78203 16.9401 9.99957C16.9401 11.2171 16.6471 12.1857 16.1492 12.9369C15.6532 13.6851 14.9955 14.1552 14.3641 14.4467C13.8276 14.6945 13.3007 14.8183 12.88 14.8803V18.9996C12.88 19.5187 12.4591 19.9396 11.94 19.9396C11.4209 19.9396 11 19.5187 11 18.9996V13.9996C11 13.7402 11.1071 13.4924 11.2961 13.3148C11.4839 13.1382 11.7359 13.0465 11.9931 13.0611L12.0107 13.0617C12.0288 13.0622 12.0599 13.0626 12.1021 13.0621C12.1867 13.061 12.3139 13.0557 12.4689 13.0382C12.784 13.0026 13.1865 12.9198 13.5759 12.7399C13.9596 12.5627 14.3169 12.2984 14.5822 11.8982C14.8455 11.501 15.0601 10.907 15.0601 9.99957C15.0601 9.09211 14.8455 8.49818 14.5822 8.10096C14.3169 7.70072 13.9596 7.43641 13.5759 7.25921C13.1865 7.07938 12.784 6.99654 12.4689 6.96098C12.3139 6.94348 12.1867 6.93816 12.1021 6.93705C12.0599 6.93649 12.0288 6.93698 12.0107 6.93747L11.9936 6.93805C11.7364 6.95261 11.4839 6.86096 11.2961 6.68437C11.1071 6.50672 11 6.25891 11 5.99957V0.99957C11 0.480423 11.4209 0.0595703 11.94 0.0595703Z" fill="#C7C7CC"/>
<path d="M12.877 19.2012V24H11.002L10.998 19.2012L8.59961 21.5996C8.23633 21.9668 7.64258 21.9629 7.27539 21.5996C6.9082 21.2363 6.9082 20.6426 7.27539 20.2754L11.2793 16.2754C11.6426 15.9082 12.2363 15.9082 12.6035 16.2754L16.5996 20.2754C16.9668 20.6387 16.9629 21.2324 16.5996 21.5996C16.2363 21.9668 15.6426 21.9668 15.2754 21.5996L12.877 19.2012Z" fill="#232F3E"/>
</svg>
