<svg width="24" height="24" viewBox="0 0 24 24" fill="none" xmlns="http://www.w3.org/2000/svg">
<path d="M14 21L14.6647 21.6647C14.2976 22.0318 13.7024 22.0318 13.3353 21.6647L14 21ZM17.8353 15.8353C18.2024 15.4682 18.7976 15.4682 19.1647 15.8353C19.5318 16.2024 19.5318 16.7976 19.1647 17.1647L17.8353 15.8353ZM8.83532 17.1647C8.46823 16.7976 8.46823 16.2024 8.83532 15.8353C9.20241 15.4682 9.79759 15.4682 10.1647 15.8353L8.83532 17.1647ZM13.3353 20.3353L17.8353 15.8353L19.1647 17.1647L14.6647 21.6647L13.3353 20.3353ZM13.3353 21.6647L8.83532 17.1647L10.1647 15.8353L14.6647 20.3353L13.3353 21.6647ZM14.94 6.5V21H13.06V6.5H14.94Z" fill="#232F3E"/>
<path d="M14 6.5C14 4.567 12.2091 3 10 3C7.79086 3 6 4.567 6 6.5V12" stroke="#232F3E" stroke-width="1.88" stroke-linecap="round"/>
</svg>
