<svg width="24" height="24" viewBox="0 0 24 24" fill="none" xmlns="http://www.w3.org/2000/svg">
<rect x="5" y="4" width="2" height="16" rx="1" fill="#C7C7CC"/>
<path fill-rule="evenodd" clip-rule="evenodd" d="M19.7812 11.3756L15.7812 6.37557C15.4342 5.94457 14.8062 5.87357 14.3752 6.21957C13.9442 6.56357 13.8742 7.19357 14.2192 7.62457L16.9202 11.0006H8.00018C6.34518 11.0006 5.00018 12.3456 5.00018 14.0006V19.0006C5.00018 19.5526 5.44818 20.0006 6.00018 20.0006C6.55218 20.0006 7.00018 19.5526 7.00018 19.0006V14.0006C7.00018 13.4486 7.44818 13.0006 8.00018 13.0006H16.9202L14.2192 16.3756C13.8742 16.8066 13.9442 17.4366 14.3752 17.7806C14.5592 17.9286 14.7802 18.0006 14.9992 18.0006C15.2932 18.0006 15.5832 17.8716 15.7812 17.6246L19.7812 12.6246C20.0732 12.2596 20.0732 11.7406 19.7812 11.3756Z" fill="#232F3E"/>
</svg>
