<svg width="24" height="24" viewBox="0 0 24 24" fill="none" xmlns="http://www.w3.org/2000/svg">
<path fill-rule="evenodd" clip-rule="evenodd" d="M11.0742 21.5506C9.03516 19.0363 4.5 12.9424 4.5 9.51946C4.5 5.36652 7.85781 2 12 2C16.1406 2 19.5 5.36652 19.5 9.51946C19.5 12.9424 14.9297 19.0363 12.9258 21.5506C12.4453 22.1498 11.5547 22.1498 11.0742 21.5506ZM17.0273 11.7596C17.4492 10.757 17.625 10.0051 17.625 9.51946C17.625 6.40593 15.1055 3.87986 12 3.87986C8.89453 3.87986 6.375 6.40593 6.375 9.51946C6.375 10.0051 6.55039 10.757 6.97266 11.7596C7.38203 12.7309 7.96328 13.804 8.63281 14.8888C9.74219 16.6982 11.0312 18.4136 12 19.6903C12.9688 18.4136 14.2578 16.6982 15.3672 14.8888C16.0352 13.804 16.6172 12.7309 17.0273 11.7596Z" fill="#232F3E"/>
</svg>
