<svg width="24" height="24" viewBox="0 0 24 24" fill="none" xmlns="http://www.w3.org/2000/svg">
<path d="M14 3V21" stroke="#C7C7CC" stroke-width="1.88"/>
<path fill-rule="evenodd" clip-rule="evenodd" d="M6.33885 5.33886C5.97371 5.704 5.97371 6.29601 6.33885 6.66115L12.1673 12.4896C12.7421 13.0644 13.065 13.844 13.065 14.6569V21C13.065 21.5164 13.4836 21.935 14 21.935C14.5164 21.935 14.935 21.5164 14.935 21V14.6569C14.935 13.348 14.4151 12.0928 13.4896 11.1673L7.66114 5.33886C7.296 4.97372 6.70399 4.97372 6.33885 5.33886Z" fill="#232F3E"/>
<path d="M4.1875 2.25C3.66797 2.25 3.25 2.66797 3.25 3.1875V9.5625C3.25 10.082 3.66797 10.5 4.1875 10.5C4.70703 10.5 5.125 10.082 5.125 9.5625V5.44922L10.1484 10.4766C10.5156 10.8438 11.1094 10.8438 11.4727 10.4766C11.8359 10.1094 11.8398 9.51562 11.4727 9.15234L6.44922 4.12891L10.5625 4.125C11.082 4.125 11.5 3.70703 11.5 3.1875C11.5 2.66797 11.082 2.25 10.5625 2.25H4.1875Z" fill="#232F3E"/>
</svg>
