<svg width="24" height="24" viewBox="0 0 24 24" fill="none" xmlns="http://www.w3.org/2000/svg">
<path fill-rule="evenodd" clip-rule="evenodd" d="M11.3215 3.78444C11.5 3.60191 11.7422 3.5 12.0002 3.5C12.258 3.5 12.5017 3.60191 12.6791 3.78253L19.2415 10.4751C19.5979 10.8398 19.5844 11.4174 19.2094 11.7658C18.8383 12.1137 18.2427 12.1008 17.8837 11.7346L12.9373 6.68888V19.6216C12.9373 20.1254 12.5174 20.5 12.035 20.5C11.5525 20.5 11.0623 20.1273 11.0623 19.6216V6.68888L6.11711 11.735C5.75852 12.1 5.16283 12.1114 4.79049 11.7654C4.4155 11.4155 4.40222 10.8375 4.75846 10.4763L11.3215 3.78444Z" fill="#232F3E"/>
</svg>
