<svg width="24" height="24" viewBox="0 0 24 24" fill="none" xmlns="http://www.w3.org/2000/svg">
<path d="M12 9C9 9 8 11.1 8 13C8 14.9 9 17 12 17C15 17 16 14.9 16 13C16 11.1 15 9 12 9Z" stroke="#C7C7CC" stroke-width="1.88" stroke-linecap="round" stroke-linejoin="round"/>
<path fill-rule="evenodd" clip-rule="evenodd" d="M13 5.10059L13.002 4.20117L15.4004 6.59961C15.7637 6.9668 16.3574 6.96289 16.7246 6.59961C17.0918 6.23633 17.0918 5.64258 16.7246 5.27539L12.7207 1.27539C12.3574 0.908203 11.7637 0.908203 11.3965 1.27539L7.40039 5.27539C7.0332 5.63867 7.03711 6.23242 7.40039 6.59961C7.76367 6.9668 8.35742 6.9668 8.72461 6.59961L11.12 4.20422V8.11889C10.6993 8.18087 10.1724 8.30463 9.63586 8.55243C9.00455 8.84398 8.34678 9.31405 7.85083 10.0622C7.35287 10.8135 7.05994 11.782 7.05994 12.9996C7.05994 14.2171 7.35287 15.1857 7.85083 15.9369C8.34678 16.6851 9.00455 17.1552 9.63586 17.4467C10.1724 17.6945 10.6993 17.8183 11.12 17.8803V21.9996C11.12 22.5187 11.5409 22.9396 12.06 22.9396C12.5791 22.9396 13 22.5187 13 21.9996V16.9996C13 16.7402 12.8929 16.4924 12.7039 16.3148C12.5161 16.1382 12.2641 16.0465 12.0069 16.0611L11.9893 16.0617C11.9712 16.0622 11.9401 16.0626 11.8979 16.0621C11.8133 16.061 11.6861 16.0557 11.5311 16.0382C11.216 16.0026 10.8135 15.9198 10.4241 15.7399C10.0404 15.5627 9.68313 15.2984 9.41782 14.8982C9.15452 14.501 8.93994 13.907 8.93994 12.9996C8.93994 12.0921 9.15452 11.4982 9.41782 11.101C9.68313 10.7007 10.0404 10.4364 10.4241 10.2592C10.8135 10.0794 11.216 9.99654 11.5311 9.96098C11.6861 9.94348 11.8133 9.93816 11.8979 9.93705C11.9401 9.93649 11.9712 9.93698 11.9893 9.93747L12.0064 9.93805C12.2636 9.95261 12.5161 9.86096 12.7039 9.68437C12.8929 9.50672 13 9.25891 13 8.99957V5.10059Z" fill="#232F3E"/>
</svg>
