<?xml version="1.0" encoding="UTF-8"?>
<svg width="24px" height="24px" viewBox="0 0 24 24" version="1.1" xmlns="http://www.w3.org/2000/svg" xmlns:xlink="http://www.w3.org/1999/xlink">
    <title>icon-circle-user</title>
    <g id="UI-Kit" stroke="none" stroke-width="1" fill="none" fill-rule="evenodd">
        <g id="Icons" transform="translate(-40.000000, -160.000000)" fill="#1D1D1F">
            <g id="Row-2" transform="translate(40.000000, 160.000000)">
                <g id="Icon/circle-user" transform="translate(1.000000, 1.000000)">
                    <path d="M11,4.8125 C8.91171875,4.8125 7.21875,6.50546875 7.21875,8.59375 C7.21875,10.6820312 8.91171875,12.375 11,12.375 C13.0882813,12.375 14.78125,10.6820312 14.78125,8.59375 C14.78125,6.50546875 13.0882813,4.8125 11,4.8125 Z M11,10.3125 C10.0521094,10.3125 9.28125,9.54121094 9.28125,8.59375 C9.28125,7.64414063 10.0503906,6.875 11,6.875 C11.9496094,6.875 12.71875,7.64585937 12.71875,8.59375 C12.71875,9.54335937 11.9496094,10.3125 11,10.3125 Z M11,0 C4.92421875,0 0,4.92421875 0,11 C0,17.0757812 4.92421875,22 11,22 C17.0757812,22 22,17.0757812 22,11 C22,4.92421875 17.0757812,0 11,0 Z M11,19.9375 C8.99207031,19.9375 7.143125,19.26375 5.65039063,18.1418359 C6.39375,16.7148438 7.8375,15.8125 9.46171875,15.8125 L12.5421484,15.8125 C14.1642187,15.8125 15.60625,16.7152734 16.3526172,18.1418359 C14.8585938,19.2628906 13.0066406,19.9375 11,19.9375 Z M17.8835937,16.6933594 C16.7234375,14.8800781 14.746875,13.75 12.5382812,13.75 L9.46171875,13.75 C7.25484375,13.75 5.27871094,14.8779297 4.11640625,16.6925 C2.83421875,15.1464844 2.0625,13.1613281 2.0625,11 C2.0625,6.07148438 6.07191406,2.0625 11,2.0625 C15.9280859,2.0625 19.9375,6.07191406 19.9375,11 C19.9375,13.1613281 19.1640625,15.1464844 17.8835937,16.6933594 Z" id="🎨-Icon-Сolor"></path>
                </g>
            </g>
        </g>
    </g>
</svg>