<?xml version="1.0" encoding="UTF-8"?>
<svg width="24px" height="24px" viewBox="0 0 24 24" version="1.1" xmlns="http://www.w3.org/2000/svg" xmlns:xlink="http://www.w3.org/1999/xlink">
    <title>Icon/navigation-solid</title>
    <g id="UI-Kit" stroke="none" stroke-width="1" fill="none" fill-rule="evenodd">
        <g id="Icons" transform="translate(-232, -400)" fill="#008296">
            <g id="Row-7" transform="translate(40, 400)">
                <g id="Icon/navigation-solid" transform="translate(195, 2.9996)">
                    <path d="M17.0002258,18.0005 C16.8082258,18.0005 16.6162258,17.9455 16.4482258,17.8345 L9.55222582,13.2675 C9.21722582,13.0455 8.78322582,13.0455 8.44822582,13.2675 L1.55222582,17.8345 C1.17422582,18.0835 0.676225821,18.0495 0.337225821,17.7495 C-0.00177417937,17.4485 -0.0967741794,16.9585 0.105225821,16.5535 L8.10522582,0.5535 C8.47422582,-0.1845 9.52622582,-0.1845 9.89522582,0.5535 L17.8952258,16.5535 C18.0972258,16.9585 18.0022258,17.4485 17.6632258,17.7495 C17.4752258,17.9155 17.2382258,18.0005 17.0002258,18.0005" id="🎨-Icon-Сolor"></path>
                </g>
            </g>
        </g>
    </g>
</svg>