<svg width="24" height="24" viewBox="0 0 24 24" fill="none" xmlns="http://www.w3.org/2000/svg">
<path d="M10 21L9.33532 21.6647C9.70241 22.0318 10.2976 22.0318 10.6647 21.6647L10 21ZM6.16468 15.8353C5.79759 15.4682 5.20241 15.4682 4.83532 15.8353C4.46823 16.2024 4.46823 16.7976 4.83532 17.1647L6.16468 15.8353ZM15.1647 17.1647C15.5318 16.7976 15.5318 16.2024 15.1647 15.8353C14.7976 15.4682 14.2024 15.4682 13.8353 15.8353L15.1647 17.1647ZM10.6647 20.3353L6.16468 15.8353L4.83532 17.1647L9.33532 21.6647L10.6647 20.3353ZM10.6647 21.6647L15.1647 17.1647L13.8353 15.8353L9.33532 20.3353L10.6647 21.6647ZM9.06 6.5V21H10.94V6.5H9.06Z" fill="#232F3E"/>
<path d="M10 6.5C10 4.567 11.7909 3 14 3C16.2091 3 18 4.567 18 6.5V12" stroke="#232F3E" stroke-width="1.88" stroke-linecap="round"/>
</svg>
