<svg xmlns="http://www.w3.org/2000/svg">
    <g>
        <!-- Background Oval -->
        <svg width="128" height="128" viewBox="0 0 128 128" fill="none" xmlns="http://www.w3.org/2000/svg">
            <circle id="Oval" opacity="0.24" cx="32" cy="32" r="32" fill="#008296"/>
        </svg>
 
        <!-- White Oval -->
        <svg width="128" height="128" viewBox="0 0 128 128" fill="none" xmlns="http://www.w3.org/2000/svg">
            <circle id="OvalWhite" cx="32" cy="32" r="16" fill="white"/>
        </svg>

        <!-- Icon (Scaled and Centered) -->
        <svg width="24" height="24" viewBox="0 0 14 14" x="20" y="20" fill="none" xmlns="http://www.w3.org/2000/svg">
            <g id="Icon">
                <path id="IconColor" fill-rule="evenodd" clip-rule="evenodd" 
                    d="M7.00004 1.1665C9.84379 1.1665 12.1042 1.96859 12.1042 2.98942V3.354V10.6457C12.1042 11.049 11.7784 11.3748 11.375 11.3748V12.104C11.375 12.5073 11.0492 12.8332 10.6459 12.8332H9.91671C9.51339 12.8332 9.18754 12.5073 9.18754 12.104V11.3748H4.81254V12.104C4.81254 12.5073 4.48669 12.8332 4.08337 12.8332H3.35421C2.95089 12.8332 2.62504 12.5073 2.62504 12.104V11.3748C2.22172 11.3748 1.89587 11.049 1.89587 10.6457V3.354V2.98942C1.89587 1.96859 4.15629 1.1665 7.00004 1.1665ZM3.35421 4.08317V6.99984C3.35421 7.40316 3.68005 7.729 4.08337 7.729H9.91671C10.32 7.729 10.6459 7.40316 10.6459 6.99984V4.08317C10.6459 3.67985 10.32 3.354 9.91671 3.354H4.08337C3.68005 3.354 3.35421 3.67985 3.35421 4.08317ZM3.71879 10.2811C4.12211 10.2811 4.44796 9.95524 4.44796 9.55192C4.44796 9.1486 4.12211 8.82275 3.71879 8.82275C3.31547 8.82275 2.98962 9.1486 2.98962 9.55192C2.98962 9.95524 3.31547 10.2811 3.71879 10.2811ZM10.2813 10.2811C10.6846 10.2811 11.0105 9.95524 11.0105 9.55192C11.0105 9.1486 10.6846 8.82275 10.2813 8.82275C9.87797 8.82275 9.55212 9.1486 9.55212 9.55192C9.55212 9.95524 9.87797 10.2811 10.2813 10.2811Z" 
                    fill="#232F3E"/>
            </g>
        </svg>
    </g>
</svg>
