<?xml version="1.0" encoding="UTF-8"?>
<svg width="24px" height="24px" viewBox="0 0 24 24" version="1.1" xmlns="http://www.w3.org/2000/svg" xmlns:xlink="http://www.w3.org/1999/xlink">
    <title>Icon-log-out</title>
    <g id="UI-Kit" stroke="none" stroke-width="1" fill="none" fill-rule="evenodd">
        <g id="Icons" transform="translate(-280.000000, -208.000000)" fill="#1D1D1F">
            <g id="Row-3" transform="translate(40.000000, 208.000000)">
                <g id="Icon/log-out" transform="translate(244.000000, 4.000000)">
                    <path d="M3,2 C3.55,2 4,1.55 4,1 C4,0.45 3.55,0 3,0 L1,0 C0.45,0 0,0.45 0,1 L0,15 C0,15.55 0.45,16 1,16 L3,16 C3.55,16 4,15.55 4,15 C4,14.45 3.55,14 3,14 L2,14 L2,2 L3,2 Z M16.8179,7.4248 L14.0039,3.4248 C13.6859,2.9728 13.0619,2.8628 12.6109,3.1818 C12.1589,3.4998 12.0499,4.1238 12.3679,4.5748 L14.0859,7.0178 C14.0559,7.0148 14.0299,6.9998 13.9999,6.9998 L5.9999,6.9998 C5.4479,6.9998 4.9999,7.4468 4.9999,7.9998 C4.9999,8.5528 5.4479,8.9998 5.9999,8.9998 L13.9999,8.9998 L14.0009,8.9998 L12.1999,11.4008 C11.8689,11.8418 11.9579,12.4688 12.3999,12.7998 C12.5799,12.9348 12.7909,12.9998 12.9989,12.9998 C13.3029,12.9998 13.6039,12.8618 13.7999,12.5998 L16.7999,8.5998 C17.0599,8.2538 17.0679,7.7788 16.8179,7.4248" id="🎨-Icon-Сolor"></path>
                </g>
            </g>
        </g>
    </g>
</svg>