<svg width="24" height="24" viewBox="0 0 24 24" fill="none" xmlns="http://www.w3.org/2000/svg">
<rect x="17" y="4" width="2" height="16" rx="1" fill="#C7C7CC"/>
<path fill-rule="evenodd" clip-rule="evenodd" d="M4.21918 11.3756L8.21918 6.37557C8.56618 5.94457 9.19418 5.87357 9.62518 6.21957C10.0562 6.56357 10.1262 7.19357 9.78118 7.62457L7.08018 11.0006H16.0002C17.6552 11.0006 19.0002 12.3456 19.0002 14.0006V19.0006C19.0002 19.5526 18.5522 20.0006 18.0002 20.0006C17.4482 20.0006 17.0002 19.5526 17.0002 19.0006V14.0006C17.0002 13.4486 16.5522 13.0006 16.0002 13.0006H7.08018L9.78118 16.3756C10.1262 16.8066 10.0562 17.4366 9.62518 17.7806C9.44118 17.9286 9.22018 18.0006 9.00118 18.0006C8.70718 18.0006 8.41718 17.8716 8.21918 17.6246L4.21918 12.6246C3.92718 12.2596 3.92718 11.7406 4.21918 11.3756Z" fill="#232F3E"/>
</svg>
