<?xml version="1.0" encoding="UTF-8"?>
<svg width="205px" height="32px" viewBox="0 0 205 32" version="1.1" xmlns="http://www.w3.org/2000/svg" xmlns:xlink="http://www.w3.org/1999/xlink">
    <title>Logo@2x</title>
    <g id="UI-Kit" stroke="none" stroke-width="1" fill="none" fill-rule="evenodd">
        <g id="Logo" transform="translate(-80.000000, -136.000000)" fill="#232F3E" fill-rule="nonzero">
            <path d="M130.290794,159.111111 L128.926591,155.185778 L122.851622,155.185778 L121.53005,159.111111 L119.291904,159.111111 L124.748718,144.327111 L127.093442,144.327111 L132.550256,159.111111 L130.290794,159.111111 Z M123.40583,153.543111 L128.372383,153.543111 L125.878449,146.289778 L123.40583,153.543111 Z M148.153334,159.111111 L148.153334,151.772444 C148.153334,151.061333 148.018335,150.535111 147.748336,150.193778 C147.478338,149.852444 147.052024,149.681778 146.469396,149.681778 C145.432032,149.681778 144.387564,150.001778 143.335991,150.641778 C143.350201,150.741333 143.357306,150.848 143.357306,150.961778 C143.357306,151.075556 143.357306,151.189333 143.357306,151.303111 L143.357306,159.111111 L141.247054,159.111111 L141.247054,151.772444 C141.247054,151.061333 141.112055,150.535111 140.842056,150.193778 C140.572057,149.852444 140.145744,149.681778 139.563115,149.681778 C138.483121,149.681778 137.445758,149.994667 136.451026,150.620444 L136.451026,159.111111 L134.340774,159.111111 L134.340774,148.295111 L136.109975,148.295111 L136.323132,149.383111 C137.687335,148.444444 139.016013,147.975111 140.309164,147.975111 C141.630736,147.975111 142.525995,148.48 142.99494,149.489778 C144.401775,148.48 145.808609,147.975111 147.215444,147.975111 C148.195966,147.975111 148.94912,148.252444 149.474906,148.807111 C150.000693,149.361778 150.263587,150.151111 150.263587,151.175111 L150.263587,159.111111 L148.153334,159.111111 Z M159.727749,159.111111 L159.557223,158.001778 C159.045647,158.442667 158.480781,158.784 157.862627,159.025778 C157.244472,159.267556 156.62987,159.388444 156.01882,159.388444 C155.009878,159.388444 154.203435,159.100444 153.599491,158.524444 C152.995546,157.948444 152.693574,157.176889 152.693574,156.209778 C152.693574,155.171556 153.063046,154.343111 153.801989,153.724444 C154.540933,153.105778 155.535665,152.796444 156.786185,152.796444 C157.610391,152.796444 158.50565,152.917333 159.47196,153.159111 L159.47196,151.751111 C159.47196,150.983111 159.297882,150.442667 158.949726,150.129778 C158.60157,149.816889 158.008284,149.660444 157.169867,149.660444 C155.961978,149.660444 154.711458,149.880889 153.418307,150.321778 L153.418307,148.828444 C153.929884,148.558222 154.555143,148.348444 155.294087,148.199111 C156.033031,148.049778 156.779079,147.975111 157.532233,147.975111 C158.882227,147.975111 159.876958,148.256 160.516429,148.817778 C161.155899,149.379556 161.475634,150.236444 161.475634,151.388444 L161.475634,159.111111 L159.727749,159.111111 Z M156.530397,157.788444 C157.496707,157.788444 158.477229,157.425778 159.47196,156.700444 L159.47196,154.524444 C158.733017,154.339556 157.979863,154.247111 157.212498,154.247111 C155.606717,154.247111 154.803826,154.865778 154.803826,156.103111 C154.803826,156.643556 154.953036,157.059556 155.251456,157.351111 C155.549875,157.642667 155.976189,157.788444 156.530397,157.788444 Z M163.799043,159.111111 L163.799043,157.489778 L170.001906,149.959111 L164.0122,149.959111 L164.0122,148.295111 L172.346631,148.295111 L172.346631,149.895111 L166.058505,157.447111 L172.410578,157.447111 L172.410578,159.111111 L163.799043,159.111111 Z M179.146333,159.431111 C177.526341,159.431111 176.261611,158.926222 175.352142,157.916444 C174.442673,156.906667 173.987938,155.498667 173.987938,153.692444 C173.987938,151.900444 174.442673,150.499556 175.352142,149.489778 C176.261611,148.48 177.526341,147.975111 179.146333,147.975111 C180.766325,147.975111 182.031055,148.48 182.940524,149.489778 C183.849993,150.499556 184.304728,151.900444 184.304728,153.692444 C184.304728,155.498667 183.849993,156.906667 182.940524,157.916444 C182.031055,158.926222 180.766325,159.431111 179.146333,159.431111 Z M179.146333,157.724444 C181.150007,157.724444 182.151844,156.380444 182.151844,153.692444 C182.151844,151.018667 181.150007,149.681778 179.146333,149.681778 C177.142659,149.681778 176.140822,151.018667 176.140822,153.692444 C176.140822,156.380444 177.142659,157.724444 179.146333,157.724444 Z M194.216519,159.111111 L194.216519,151.879111 C194.216519,151.125333 194.063756,150.570667 193.758232,150.215111 C193.452707,149.859556 192.973104,149.681778 192.319423,149.681778 C191.196797,149.681778 190.095487,150.044444 189.015493,150.769778 L189.015493,159.111111 L186.905241,159.111111 L186.905241,148.295111 L188.674442,148.295111 L188.887599,149.489778 C190.237592,148.48 191.658637,147.975111 193.150735,147.975111 C194.188098,147.975111 194.976778,148.248889 195.516775,148.796444 C196.056772,149.344 196.326771,150.136889 196.326771,151.175111 L196.326771,159.111111 L194.216519,159.111111 Z M205.236725,159.111111 L205.236725,144.327111 L207.410925,144.327111 L207.410925,157.319111 L214.381152,157.319111 L214.381152,159.111111 L205.236725,159.111111 Z M220.797172,159.431111 C219.17718,159.431111 217.91245,158.926222 217.002981,157.916444 C216.093512,156.906667 215.638777,155.498667 215.638777,153.692444 C215.638777,151.900444 216.093512,150.499556 217.002981,149.489778 C217.91245,148.48 219.17718,147.975111 220.797172,147.975111 C222.417163,147.975111 223.681894,148.48 224.591363,149.489778 C225.500832,150.499556 225.955566,151.900444 225.955566,153.692444 C225.955566,155.498667 225.500832,156.906667 224.591363,157.916444 C223.681894,158.926222 222.417163,159.431111 220.797172,159.431111 Z M220.797172,157.724444 C222.800846,157.724444 223.802683,156.380444 223.802683,153.692444 C223.802683,151.018667 222.800846,149.681778 220.797172,149.681778 C218.793498,149.681778 217.791661,151.018667 217.791661,153.692444 C217.791661,156.380444 218.793498,157.724444 220.797172,157.724444 Z M236.037883,158.705778 C235.213677,159.132444 234.261576,159.345778 233.181582,159.345778 C231.504748,159.345778 230.222255,158.865778 229.334102,157.905778 C228.445948,156.945778 228.001872,155.555556 228.001872,153.735111 C228.001872,151.928889 228.460159,150.531556 229.376733,149.543111 C230.293307,148.554667 231.590011,148.060444 233.266845,148.060444 C234.218945,148.060444 235.114204,148.259556 235.95262,148.657778 L235.95262,150.172444 C235.142624,149.916444 234.346839,149.788444 233.565264,149.788444 C232.371586,149.788444 231.511854,150.090667 230.986067,150.695111 C230.46028,151.299556 230.197387,152.263111 230.197387,153.585778 L230.197387,153.863111 C230.197387,155.157333 230.463833,156.106667 230.996725,156.711111 C231.529617,157.315556 232.371586,157.617778 233.522633,157.617778 C234.289997,157.617778 235.128414,157.475556 236.037883,157.191111 L236.037883,158.705778 Z M244.73468,159.111111 L244.564155,158.001778 C244.052579,158.442667 243.487713,158.784 242.869558,159.025778 C242.251404,159.267556 241.636802,159.388444 241.025752,159.388444 C240.01681,159.388444 239.210367,159.100444 238.606422,158.524444 C238.002478,157.948444 237.700506,157.176889 237.700506,156.209778 C237.700506,155.171556 238.069978,154.343111 238.808921,153.724444 C239.547865,153.105778 240.542597,152.796444 241.793117,152.796444 C242.617323,152.796444 243.512581,152.917333 244.478892,153.159111 L244.478892,151.751111 C244.478892,150.983111 244.304814,150.442667 243.956658,150.129778 C243.608502,149.816889 243.015216,149.660444 242.176799,149.660444 C240.96891,149.660444 239.71839,149.880889 238.425239,150.321778 L238.425239,148.828444 C238.936815,148.558222 239.562075,148.348444 240.301019,148.199111 C241.039963,148.049778 241.786011,147.975111 242.539165,147.975111 C243.889158,147.975111 244.88389,148.256 245.523361,148.817778 C246.162831,149.379556 246.482566,150.236444 246.482566,151.388444 L246.482566,159.111111 L244.73468,159.111111 Z M241.537328,157.788444 C242.503639,157.788444 243.484161,157.425778 244.478892,156.700444 L244.478892,154.524444 C243.739949,154.339556 242.986795,154.247111 242.21943,154.247111 C240.613649,154.247111 239.810758,154.865778 239.810758,156.103111 C239.810758,156.643556 239.959968,157.059556 240.258388,157.351111 C240.556807,157.642667 240.983121,157.788444 241.537328,157.788444 Z M255.69094,158.855111 C254.994628,159.125333 254.205948,159.260444 253.324899,159.260444 C251.307015,159.260444 250.298073,158.250667 250.298073,156.231111 L250.298073,149.959111 L248.33703,149.959111 L248.33703,148.593778 L250.36202,148.337778 L250.681755,145.265778 L252.408325,145.265778 L252.408325,148.295111 L255.605677,148.295111 L255.605677,149.959111 L252.408325,149.959111 L252.408325,156.124444 C252.408325,156.650667 252.525561,157.020444 252.760034,157.233778 C252.994506,157.447111 253.395952,157.553778 253.96437,157.553778 C254.546998,157.553778 255.122522,157.482667 255.69094,157.340444 L255.69094,158.855111 Z M257.865139,159.111111 L257.865139,148.295111 L259.975392,148.295111 L259.975392,159.111111 L257.865139,159.111111 Z M258.930923,146.375111 C258.51882,146.375111 258.195532,146.257778 257.96106,146.023111 C257.726587,145.788444 257.609351,145.479111 257.609351,145.095111 C257.609351,144.711111 257.726587,144.401778 257.96106,144.167111 C258.195532,143.932444 258.51882,143.815111 258.930923,143.815111 C259.343026,143.815111 259.666314,143.932444 259.900787,144.167111 C260.135259,144.401778 260.252495,144.711111 260.252495,145.095111 C260.252495,145.479111 260.135259,145.788444 259.900787,146.023111 C259.666314,146.257778 259.343026,146.375111 258.930923,146.375111 Z M267.819562,159.431111 C266.19957,159.431111 264.93484,158.926222 264.025371,157.916444 C263.115902,156.906667 262.661167,155.498667 262.661167,153.692444 C262.661167,151.900444 263.115902,150.499556 264.025371,149.489778 C264.93484,148.48 266.19957,147.975111 267.819562,147.975111 C269.439554,147.975111 270.704284,148.48 271.613753,149.489778 C272.523222,150.499556 272.977956,151.900444 272.977956,153.692444 C272.977956,155.498667 272.523222,156.906667 271.613753,157.916444 C270.704284,158.926222 269.439554,159.431111 267.819562,159.431111 Z M267.819562,157.724444 C269.823236,157.724444 270.825073,156.380444 270.825073,153.692444 C270.825073,151.018667 269.823236,149.681778 267.819562,149.681778 C265.815888,149.681778 264.814051,151.018667 264.814051,153.692444 C264.814051,156.380444 265.815888,157.724444 267.819562,157.724444 Z M282.889748,159.111111 L282.889748,151.879111 C282.889748,151.125333 282.736985,150.570667 282.431461,150.215111 C282.125936,149.859556 281.646333,149.681778 280.992652,149.681778 C279.870026,149.681778 278.768716,150.044444 277.688722,150.769778 L277.688722,159.111111 L275.578469,159.111111 L275.578469,148.295111 L277.347671,148.295111 L277.560828,149.489778 C278.910821,148.48 280.331866,147.975111 281.823964,147.975111 C282.861327,147.975111 283.650007,148.248889 284.190004,148.796444 C284.730001,149.344 285,150.136889 285,151.175111 L285,159.111111 L282.889748,159.111111 Z M97.7486714,141.482286 C97.7029964,141.586286 97.688723,141.701143 97.7081349,141.813143 L98.1911475,144.571429 L93.8063519,144.571429 L94.2659561,141.808571 C94.284797,141.697714 94.2699527,141.584571 94.2248486,141.482286 L92.2979365,137.142857 L99.6755836,137.142857 L97.7486714,141.482286 Z M101.033272,136.26 C100.927648,136.098286 100.747803,136 100.554255,136 L91.4192645,136 C91.2257169,136 91.0458718,136.098286 90.9402485,136.26 C90.8351961,136.422286 90.8186389,136.626857 90.8974282,136.803429 L93.1115216,141.789714 L92.5691315,145.049143 C92.5411556,145.214857 92.5879724,145.384 92.6964505,145.512571 C92.8049285,145.640571 92.9642199,145.714286 93.1320753,145.714286 L95.4158231,145.714286 L95.4158231,151.428571 L96.557697,151.428571 L96.557697,145.714286 L98.8711334,145.714286 C99.0401307,145.714286 99.1999931,145.639429 99.3079002,145.510286 C99.4169491,145.381143 99.4626241,145.210286 99.4335063,145.044 L98.8631403,141.787429 L101.076092,136.803429 C101.154881,136.626857 101.138324,136.422286 101.033272,136.26 L101.033272,136.26 Z M105.607047,157.017143 L104.213961,157.685714 L95.98676,161.651429 L87.7595588,157.685714 L86.3664727,157.017143 L81.9759677,154.902857 L86.3379258,153.125714 L95.7412571,157.657143 C95.8154789,157.697143 95.9011195,157.714286 95.98676,157.714286 C96.0724006,157.714286 96.1580411,157.697143 96.2322629,157.657143 L105.635594,153.125714 L109.997552,154.902857 L105.607047,157.017143 Z M109.997552,160.045714 L95.98676,166.794286 L81.9759677,160.045714 L86.3379258,158.268571 L95.7412571,162.8 C95.8154789,162.84 95.9011195,162.857143 95.98676,162.857143 C96.0724006,162.857143 96.1580411,162.84 96.2322629,162.8 L105.635594,158.268571 L109.997552,160.045714 Z M111.973356,154.84 C111.967285,154.611429 111.824551,154.411429 111.619013,154.325714 L107.02868,152.451429 L111.64756,150.228571 C111.853097,150.131429 111.978704,149.92 111.973356,149.697143 C111.967285,149.468571 111.824551,149.268571 111.619013,149.182857 L100.525709,144.662857 L100.559965,144.845714 C100.617059,145.194286 100.565674,145.542857 100.42294,145.851429 L109.997552,149.76 L105.607047,151.874286 L104.213961,152.542857 L95.98676,156.508571 L87.7595588,152.542857 L86.3664727,151.874286 L81.9759677,149.76 L91.5791269,145.845714 C91.442102,145.537143 91.3850083,145.2 91.442102,144.862857 L91.4763582,144.651429 L80.3545068,149.182857 C80.1489695,149.268571 80.0062352,149.468571 80.0001642,149.697143 C79.9948165,149.92 80.1204226,150.131429 80.3259599,150.228571 L84.9448397,152.451429 L80.3545068,154.325714 C80.1489695,154.411429 80.0062352,154.611429 80.0001642,154.84 C79.9948165,155.062857 80.1204226,155.274286 80.3259599,155.371429 L84.9448397,157.594286 L80.3545068,159.468571 C80.1489695,159.554286 80.0062352,159.754286 80.0001642,159.982857 C79.9948165,160.205714 80.1204226,160.417143 80.3259599,160.514286 L95.7412571,167.942857 C95.8154789,167.982857 95.9011195,168 95.98676,168 C96.0724006,168 96.1580411,167.982857 96.2322629,167.942857 L111.64756,160.514286 C111.853097,160.417143 111.978704,160.205714 111.973356,159.982857 C111.967285,159.754286 111.824551,159.554286 111.619013,159.468571 L107.02868,157.594286 L111.64756,155.371429 C111.853097,155.274286 111.978704,155.062857 111.973356,154.84 L111.973356,154.84 Z"></path>
        </g>
    </g>
</svg>