<svg width="32" height="32" viewBox="0 0 32 32" fill="none" xmlns="http://www.w3.org/2000/svg">
<g id="icon/aws-cloudformation">
<path id="&#240;&#159;&#142;&#168; Icon &#208;&#161;olor" fill-rule="evenodd" clip-rule="evenodd" d="M16 2.6665C15.1571 2.6665 14.476 3.37406 14.476 4.24984V5.13551C11.0233 5.70452 8.38019 8.81182 8.38019 12.5623V14.2149C8.38019 16.4613 7.64202 18.6433 6.29426 20.3949L5.58467 21.3202C5.30845 21.6764 5.25607 22.1662 5.44656 22.5769C5.63706 22.9876 6.0371 23.2498 6.47523 23.2498H25.5248C25.9629 23.2498 26.3629 22.9876 26.5534 22.5769C26.7439 22.1662 26.6915 21.6764 26.4153 21.3202L25.7057 20.3998C24.358 18.6433 23.6198 16.4613 23.6198 14.2149V12.5623C23.6198 8.81182 20.9767 5.70452 17.524 5.13551V4.24984C17.524 3.37406 16.8429 2.6665 16 2.6665ZM16 7.4165H16.381C19.1146 7.4165 21.3339 9.72223 21.3339 12.5623V14.2149C21.3339 16.585 21.9958 18.8957 23.2245 20.8748H8.77546C10.0042 18.8957 10.6661 16.585 10.6661 14.2149V12.5623C10.6661 9.72223 12.8854 7.4165 15.619 7.4165H16ZM19.0479 24.8332H16H12.9521C12.9521 25.6743 13.2712 26.4808 13.8426 27.0746C14.4141 27.6683 15.1904 27.9998 16 27.9998C16.8096 27.9998 17.5859 27.6683 18.1574 27.0746C18.7288 26.4808 19.0479 25.6743 19.0479 24.8332Z" fill="#008296"/>
</g>
</svg>
