<?xml version="1.0" encoding="UTF-8"?>
<svg width="2px" height="18px" viewBox="0 0 2 18" version="1.1" xmlns="http://www.w3.org/2000/svg" xmlns:xlink="http://www.w3.org/1999/xlink">
    <title>Dashed Line@2x</title>
    <g id="Mobile" stroke="none" stroke-width="1" fill="none" fill-rule="evenodd">
        <g id="Navigation-/-Routing-Options" transform="translate(-41.000000, -148.000000)" fill="#D1D1D6">
            <g id="Directions" transform="translate(0.000000, 53.000000)">
                <g id="Locations" transform="translate(16.000000, 65.000000)">
                    <path d="M26,30 C26.5522847,30 27,30.4477153 27,31 L27,33 C27,33.5522847 26.5522847,34 26,34 C25.4477153,34 25,33.5522847 25,33 L25,31 C25,30.4477153 25.4477153,30 26,30 Z M26,44 C26.5522847,44 27,44.4477153 27,45 L27,47 C27,47.5522847 26.5522847,48 26,48 C25.4477153,48 25,47.5522847 25,47 L25,45 C25,44.4477153 25.4477153,44 26,44 Z M26,37 C26.5522847,37 27,37.4477153 27,38 L27,40 C27,40.5522847 26.5522847,41 26,41 C25.4477153,41 25,40.5522847 25,40 L25,38 C25,37.4477153 25.4477153,37 26,37 Z" id="Dashed-Line"></path>
                </g>
            </g>
        </g>
    </g>
</svg>