<?xml version="1.0" encoding="UTF-8"?>
<svg width="24px" height="24px" viewBox="0 0 24 24" version="1.1" xmlns="http://www.w3.org/2000/svg" xmlns:xlink="http://www.w3.org/1999/xlink">
    <title>Icon/plug@1x</title>
    <g id="UI-Kit" stroke="none" stroke-width="1" fill="none" fill-rule="evenodd">
        <g id="Icons" transform="translate(-472.000000, -208.000000)" fill="#1D1D1F">
            <g id="Row-3" transform="translate(40.000000, 208.000000)">
                <g id="Icon/plug" transform="translate(435.750000, 1.000000)">
                    <path d="M4.125,0 C4.69648437,0 5.15625,0.461914063 5.15625,1.03125 L5.15625,4.8125 L3.09375,4.8125 L3.09375,1.03125 C3.09375,0.461914063 3.55566406,0 4.125,0 Z M12.375,0 C12.9464844,0 13.40625,0.461914063 13.40625,1.03125 L13.40625,4.8125 L11.34375,4.8125 L11.34375,1.03125 C11.34375,0.461914063 11.8035156,0 12.375,0 Z M15.46875,6.1875 C16.0402344,6.1875 16.5,6.64726562 16.5,7.21875 C16.5,7.79023438 16.0402344,8.25 15.46875,8.25 L15.125,8.25 L15.125,11 C15.125,14.4460937 12.5511719,17.2992188 9.28125,17.7976562 L9.28125,22 L7.21875,22 L7.21875,17.7976562 C3.91101563,17.2992188 1.375,14.4460937 1.375,11 L1.375,8.25 L1.03125,8.25 C0.461914062,8.25 0,7.79023438 0,7.21875 C0,6.64726562 0.461914062,6.1875 1.03125,6.1875 L15.46875,6.1875 Z M8.25,15.8125 C10.9097656,15.8125 13.0625,13.6597656 13.0625,11 L13.0625,8.25 L3.4375,8.25 L3.4375,11 C3.4375,13.6597656 5.59023437,15.8125 8.25,15.8125 Z" id="🎨-Icon-Сolor"></path>
                </g>
            </g>
        </g>
    </g>
</svg>